# xmcd
#
# Track frame offsets:
#	150
#	18890
#	33742
#	52751
#	71802
#	89831
#	106331
#	126043
#	141064
#	155314
#	167505
#	187308
#
# Disc length: 2693 seconds
# Revision: 0
# Processed by: cddbd v1.5.2PL0 Copyright (c) Steve Scherf et al.
# Submitted via: dBpowerAMP V12.0
#
DISCID=a20a830c
DTITLE=The Cowboy Way - The Cowboy Way
DYEAR=2016
DGENRE=Country
TTITLE0=Los Ladrones
TTITLE1=Don't Look Back
TTITLE2=Tularosa Rose
TTITLE3=Let The Best Man Win
TTITLE4=A Horse Half As Wild
TTITLE5=Can't See Him From The Road
TTITLE6=Everything That Glitters
TTITLE7=Day After The Day Of The Dead
TTITLE8=The Wheel Fell Off The Wagon
TTITLE9=Take Me Back To Texas When I Die
TTITLE10=If You Wanna  Ride
TTITLE11=Halfway Down The Devil's Road
EXTD=
EXTT0=
EXTT1=
EXTT2=
EXTT3=
EXTT4=
EXTT5=
EXTT6=
EXTT7=
EXTT8=
EXTT9=
EXTT10=
EXTT11=
PLAYORDER=
